<svg width="1231" height="981" version="1.1" xmlns="http://www.w3.org/2000/svg" desc="Created with imagetracer.js version 1.2.5">
    <path fill="rgb(0,255,0)" stroke="rgb(0,255,255)" stroke-width="1" opacity="1" d="M 0 0 L 1231 0 L 1231 981 L 0 981 L 0 0 Z M 453 196 L 258 238 L 260 239 L 358 272 L 380 278 L 389 282 Q 392 283 391 288 L 384 292 L 366 296 L 344 296 L 343 295 L 330 295 L 329 294 L 293 294 L 284 296 L 278 299 L 272 307 L 272 314 L 279 326 Q 288 337 302 344 L 316 351 L 343 360 L 377 367 L 403 370 L 404 371 L 430 373 L 431 374 L 441 374 L 442 375 L 453 375 L 454 376 L 466 376 L 467 377 L 499 378 L 500 379 L 540 379 L 541 378 L 539 375 L 543 371 L 553 369 L 567 371 L 577 376 L 632 424 L 646 440 Q 652 447 654 458 Q 655 479 648 493 L 654 516 Q 655 528 652 536 Q 647 547 639 555 L 581 607 L 570 614 L 558 617 L 546 616 L 539 612 L 540 610 Q 542 608 540 607 L 503 607 L 502 608 L 485 608 L 484 609 L 456 610 L 455 611 L 444 611 L 443 612 L 432 612 L 422 614 L 414 614 L 413 615 L 405 615 L 404 616 L 372 620 L 340 627 L 324 632 Q 303 639 288 652 Q 277 660 272 673 L 273 683 Q 276 688 284 690 L 292 692 L 303 692 L 304 693 L 346 691 L 347 690 L 372 691 L 390 697 Q 392 698 391 702 L 383 707 Q 315 727 251 751 Q 247 750 248 753 L 350 769 L 356 771 L 439 784 L 440 785 L 444 785 L 519 767 L 523 765 L 542 761 L 596 746 L 690 716 L 731 701 Q 793 677 849 647 Q 893 623 930 591 Q 953 571 969 545 L 980 521 L 983 510 L 984 495 L 985 494 L 985 484 L 984 483 L 983 470 L 977 451 Q 966 427 950 409 L 921 380 Q 897 360 870 344 Q 835 323 798 306 L 759 289 L 685 261 L 630 243 L 535 216 L 453 196 Z "></path>
    <path fill="rgb(119,119,255)" stroke="rgb(0,0,255)" stroke-width="1" opacity="1" d="M 452.5 196 L 534.5 216 L 629.5 243 L 684.5 261 L 758.5 289 L 797.5 306 Q 835.2 323.3 869.5 344 Q 896.6 360.4 920.5 380 L 950 408.5 Q 966.5 426.5 977 450.5 L 983 469.5 L 984 482.5 L 985 483.5 L 985 493.5 L 984 494.5 L 983 509.5 L 980 520.5 L 969 544.5 Q 952.6 571.1 929.5 591 Q 892.9 622.9 848.5 647 Q 792.8 677.3 730.5 701 L 689.5 716 L 595.5 746 L 541.5 761 L 522.5 765 L 518.5 767 L 443.5 785 L 439.5 785 L 438.5 784 L 355.5 771 L 349.5 769 L 248 753 Q 246.8 750 250.5 751 Q 314.6 727.1 382.5 707 L 391 701.5 Q 391.8 697.8 389.5 697 L 371.5 691 L 346.5 690 L 345.5 691 L 303.5 693 L 302.5 692 L 291.5 692 L 283.5 690 Q 276.3 688.2 273 682.5 L 272 672.5 Q 277.4 659.9 287.5 652 Q 302.6 639.1 323.5 632 L 339.5 627 L 371.5 620 L 403.5 616 L 404.5 615 L 412.5 615 L 413.5 614 L 421.5 614 L 431.5 612 L 442.5 612 L 443.5 611 L 454.5 611 L 455.5 610 L 483.5 609 L 484.5 608 L 501.5 608 L 502.5 607 L 539.5 607 Q 542.3 608.3 540 609.5 L 539 611.5 L 545.5 616 L 557.5 617 L 569.5 614 L 580.5 607 L 639 554.5 Q 647.3 546.8 652 535.5 Q 655.4 527.9 654 515.5 L 648 492.5 Q 654.9 478.9 654 457.5 Q 651.7 446.8 646 439.5 L 631.5 424 L 576.5 376 L 566.5 371 L 552.5 369 L 542.5 371 L 539 374.5 L 541 377.5 L 539.5 379 L 499.5 379 L 498.5 378 L 466.5 377 L 465.5 376 L 453.5 376 L 452.5 375 L 441.5 375 L 440.5 374 L 430.5 374 L 429.5 373 L 403.5 371 L 402.5 370 L 376.5 367 L 342.5 360 L 315.5 351 L 301.5 344 Q 288.4 336.6 279 325.5 L 272 313.5 L 272 306.5 L 277.5 299 L 283.5 296 L 292.5 294 L 328.5 294 L 329.5 295 L 342.5 295 L 343.5 296 L 365.5 296 L 383.5 292 L 391 287.5 Q 391.8 282.8 388.5 282 L 379.5 278 L 357.5 272 L 259.5 239 L 258 237.5 L 452.5 196 Z "></path>
</svg>
